<svg width="32" height="32" viewBox="0 0 32 32" fill="none" xmlns="http://www.w3.org/2000/svg">
  <!-- Background circle -->
  <circle cx="16" cy="16" r="16" fill="#2563eb"/>

  <!-- Stylized "S" for SchemaX -->
  <path d="M12 10.5C12 9.67 12.67 9 13.5 9H18.5C19.33 9 20 9.67 20 10.5C20 11.33 19.33 12 18.5 12H15V13H18.5C21.26 13 23.5 15.24 23.5 18C23.5 20.76 21.26 23 18.5 23H13.5C12.67 23 12 22.33 12 21.5V20.5C12 19.67 12.67 19 13.5 19H17V18H13.5C10.74 18 8.5 15.76 8.5 13C8.5 10.24 10.74 8 13.5 8H18.5C19.33 8 20 8.67 20 9.5V10.5C20 11.33 19.33 12 18.5 12H15V13H18.5C19.33 13 20 13.67 20 14.5V15.5C20 16.33 19.33 17 18.5 17H13.5C12.67 17 12 16.33 12 15.5V14.5C12 13.67 12.67 13 13.5 13H17V12H13.5C12.67 12 12 11.33 12 10.5Z" fill="white"/>
</svg>
